<svg width="53" height="58" viewBox="0 0 53 58" fill="none" xmlns="http://www.w3.org/2000/svg">
<path d="M23.9415 0.618778C25.3797 -0.204399 27.2528 -0.208117 28.6897 0.618778C35.9186 4.70347 43.1498 8.78177 50.3774 12.8689C51.7368 13.6347 52.6462 15.1476 52.6323 16.714V41.2891C52.6424 42.9204 51.6433 44.4695 50.2091 45.2179C43.0039 49.28 35.8025 53.3472 28.5986 57.4094C27.1307 58.2486 25.22 58.184 23.798 57.2759C21.6379 56.0237 19.4741 54.7777 17.3138 53.5267C16.8723 53.2635 16.3747 53.0541 16.063 52.626C16.3385 52.2546 16.8312 52.2084 17.2315 52.0462C18.1332 51.7595 18.9614 51.2992 19.7897 50.8526C19.9992 50.7093 20.2549 50.7642 20.4557 50.8925C22.3028 51.9516 24.1336 53.0415 25.987 54.0904C26.3823 54.3187 26.7827 54.0156 27.1206 53.8272C34.1911 49.8312 41.2702 45.8502 48.3394 41.8528C48.6013 41.7268 48.7461 41.4488 48.7249 41.1619C48.7298 33.0551 48.7261 24.9468 48.7273 16.84C48.7573 16.5145 48.5689 16.2152 48.2745 16.0819C41.0944 12.0383 33.918 7.98854 26.7391 3.94392C26.6147 3.85841 26.4674 3.81253 26.3164 3.81231C26.1655 3.81209 26.018 3.85754 25.8934 3.94268C18.7145 7.98854 11.5393 12.042 4.36044 16.0854C4.06711 16.2189 3.87025 16.5132 3.90516 16.84C3.9064 24.9468 3.90516 33.0551 3.90516 41.1631C3.89271 41.3031 3.92346 41.4436 3.99326 41.5655C4.06306 41.6875 4.16857 41.7852 4.29557 41.8454C6.2113 42.9318 8.1295 44.0105 10.0465 45.0931C11.1264 45.6744 12.4524 46.0198 13.6422 45.5744C14.6922 45.1978 15.4282 44.1263 15.4082 43.0115C15.4181 34.952 15.4032 26.8913 15.4156 18.833C15.3894 18.4752 15.7288 18.1796 16.0766 18.2133C16.9971 18.2071 17.9188 18.2009 18.8393 18.2158C19.2235 18.2071 19.4879 18.5924 19.4404 18.9528C19.4367 27.0633 19.4503 35.1741 19.4342 43.2846C19.4367 45.4461 18.5486 47.7981 16.5492 48.8557C14.0861 50.1317 11.0417 49.8611 8.60832 48.6376C6.50173 47.5862 4.4914 46.3453 2.4222 45.2189C0.984273 44.4746 -0.00994409 42.9194 0.000177794 41.2893V16.714C-0.0149017 15.1152 0.930565 13.5748 2.33234 12.8202C9.53623 8.75471 16.7389 4.68612 23.9415 0.618778Z" fill="#8CC84B"/>
<path d="M30.2262 17.6421C33.3681 17.4399 36.7317 17.5223 39.559 19.0701C41.748 20.2562 42.9616 22.7456 43.0002 25.1775C42.9391 25.5056 42.5961 25.6865 42.283 25.664C41.3714 25.6628 40.4596 25.6764 39.548 25.6578C39.1613 25.6727 38.9366 25.3162 38.888 24.9743C38.6261 23.8107 37.9915 22.6582 36.8963 22.097C35.215 21.2552 33.2656 21.2976 31.4323 21.3151C30.094 21.3862 28.6548 21.5021 27.5209 22.2891C26.6505 22.8853 26.3861 24.0887 26.6967 25.0579C26.9897 25.7539 27.793 25.9784 28.4503 26.1854C32.2367 27.1757 36.2491 27.0772 39.9632 28.3804C41.5009 28.9117 43.0052 29.9445 43.5315 31.5545C44.22 33.7124 43.9182 36.2916 42.383 38.0239C41.138 39.4494 39.3247 40.2253 37.5162 40.6467C35.1103 41.1831 32.6135 41.1968 30.1702 40.9586C27.8727 40.6967 25.4819 40.0931 23.7083 38.5277C22.1917 37.2108 21.4509 35.159 21.5245 33.1786C21.542 32.8442 21.875 32.6109 22.1954 32.6384C23.1134 32.631 24.0314 32.6285 24.9494 32.6396C25.316 32.6134 25.5879 32.9303 25.6067 33.2759C25.7761 34.3845 26.1927 35.5481 27.1595 36.2054C29.0252 37.4091 31.3662 37.3267 33.5026 37.3604C35.2724 37.2819 37.2592 37.2581 38.7036 36.0883C39.4656 35.4211 39.6914 34.3048 39.4854 33.3445C39.2623 32.5337 38.4142 32.1559 37.6858 31.9088C33.9479 30.7264 29.8907 31.1554 26.189 29.8183C24.6862 29.2872 23.233 28.2831 22.6556 26.7392C21.85 24.5541 22.2191 21.8514 23.9153 20.1775C25.5691 18.5126 27.9564 17.8714 30.2262 17.6419V17.6421Z" fill="#8CC84B"/>
</svg>
